<?xml version="1.0" encoding="utf-8"?>
<!-- Generator: Adobe Illustrator 25.0.1, SVG Export Plug-In . SVG Version: 6.00 Build 0)  -->
<svg version="1.1" id="Layer_1" xmlns="http://www.w3.org/2000/svg" xmlns:xlink="http://www.w3.org/1999/xlink" x="0px" y="0px"
	 viewBox="0 0 1080 1080" style="enable-background:new 0 0 1080 1080;" xml:space="preserve">
<style type="text/css">
	.st0{fill:#99A8FF;}
</style>
<path class="st0" d="M176.92,671.1c0,0,0.64,29.67,8.2,44.54c7.56,14.87,36.34,59.97,36.34,59.97l104.18,61.33l176.97,6.11
	l115.11-29.81l20.03-59.59l-4.02-85.1l-453.01,2.36C180.72,670.92,177.13,675.66,176.92,671.1z"/>
<polygon class="st0" points="675,623.2 708.19,681.04 737.06,679.67 739.58,620.15 731.63,596.92 801.09,535.76 896.83,531.24 
	965.72,651.36 961.28,815.3 759.15,824.85 736.45,779.46 667.77,776.62 612.57,688.22 "/>
<path class="st0" d="M954.23,682.36c0,0,10.16,21.61,20.76,20.34c10.6-1.26,20.74-12.38,48.89-12.96s45.33,8.51,46.78,22.91
	s0.74,47.94-28.79,51.62s-36.87-6.64-49.1-7.58c-12.23-0.95-57.82,1.21-57.82,1.21L954.23,682.36z"/>
<path class="st0" d="M148.18,606.96l-67.25,3.18c0,0-33.87-3.54-45.38,6.71C24.05,627.1,26.7,804.04,26.7,804.04
	s5.78,13.44,17.72,12.3s18.24-12.86,18.24-12.86l0.08-131.37l136.66,3.25L148.18,606.96z"/>
<circle class="st0" cx="269.03" cy="815.95" r="85.2"/>
<circle class="st0" cx="576.69" cy="816.78" r="85.2"/>
<circle class="st0" cx="804.23" cy="822.72" r="32.02"/>
<circle class="st0" cx="913.47" cy="817.56" r="32.02"/>
<circle class="st0" cx="857.84" cy="521.72" r="38.68"/>
<circle class="st0" cx="424.8" cy="226.84" r="46.77"/>
<ellipse transform="matrix(0.9989 -0.0472 0.0472 0.9989 -24.2084 20.7449)" class="st0" cx="427.34" cy="523.18" rx="305.8" ry="274.39"/>
</svg>
