<?xml version="1.0" standalone="no"?>
<!DOCTYPE svg PUBLIC "-//W3C//DTD SVG 20010904//EN"
 "http://www.w3.org/TR/2001/REC-SVG-20010904/DTD/svg10.dtd">
<svg version="1.0" xmlns="http://www.w3.org/2000/svg"
 width="116.000000pt" height="116.000000pt" viewBox="0 0 116.000000 116.000000"
 preserveAspectRatio="xMidYMid meet">
<metadata>
Created by potrace 1.11, written by Peter Selinger 2001-2013
</metadata>
<g transform="translate(0.000000,116.000000) scale(0.100000,-0.100000)"
fill="#000000" stroke="none">
<path d="M586 997 c5 -14 -44 -37 -88 -42 -54 -6 -96 -39 -90 -71 5 -26 -26
-47 -61 -42 -18 2 -23 -2 -25 -29 -3 -30 -1 -33 24 -33 l27 0 -8 -72 c-3 -40
-9 -127 -11 -192 -2 -76 -8 -122 -15 -127 -8 -4 -10 -21 -6 -44 4 -26 2 -38
-9 -42 -8 -3 -14 -18 -14 -35 0 -23 4 -29 15 -24 19 7 19 1 -2 -19 -13 -13
-14 -18 -3 -25 18 -11 5 -40 -19 -40 -19 0 -31 -25 -31 -69 l0 -24 140 8 c124
6 140 5 140 -9 0 -13 13 -16 79 -16 73 0 79 2 86 23 4 12 6 30 6 39 -1 11 5
16 16 16 10 -1 35 2 56 6 28 5 37 12 37 26 0 11 -4 20 -10 20 -5 0 -10 18 -10
40 0 22 5 40 10 40 6 0 10 7 10 15 0 8 -4 15 -10 15 -13 0 -13 77 0 85 12 7
14 485 2 485 -4 0 -12 10 -17 22 -6 12 -30 32 -55 45 -25 12 -52 29 -61 38 -9
8 -21 15 -27 15 -7 0 -12 7 -12 15 0 10 -11 15 -35 15 -24 0 -33 -4 -29 -13z"/>
</g>
</svg>
